<svg width="200" height="112" viewBox="0 0 200 112" fill="none" xmlns="http://www.w3.org/2000/svg">
<path d="M102.232 1C113.706 1 123.011 13.4995 123.011 28.9125C123.011 44.3258 113.706 56.8253 102.232 56.8253C90.758 56.8253 81.4531 44.3258 81.4531 28.9125C81.4531 13.4995 90.758 1 102.232 1Z" fill="url(#paint0_linear_693_5880)" stroke="#1B1918" stroke-width="0.544667"/>
<path d="M102.235 10.4879C109.809 10.4879 115.951 18.7387 115.951 28.9124C115.951 39.0863 109.809 47.3372 102.235 47.3372C94.6615 47.3372 88.5195 39.0863 88.5195 28.9124C88.5195 18.7387 94.6615 10.4879 102.235 10.4879Z" fill="url(#paint1_radial_693_5880)"/>
<path fill-rule="evenodd" clip-rule="evenodd" d="M89.8593 42.4643L87.2005 44.9649L86.8347 44.2631L87.8482 41.1313L86.0727 42.8013L85.7232 42.1311L88.3821 39.6301L88.7595 40.3543L87.7759 43.4248L89.5099 41.7939L89.8593 42.4643ZM87.0247 39.6176C86.8363 39.7305 86.6323 39.7769 86.4143 39.7581C86.1967 39.7384 86.0028 39.642 85.8343 39.4682C85.6652 39.295 85.5334 39.0671 85.4397 38.7844C85.2953 38.3484 85.2822 37.9271 85.401 37.5216C85.5197 37.1163 85.7401 36.8179 86.0625 36.6249C86.3869 36.4309 86.7028 36.411 87.01 36.564C87.3174 36.7177 87.5412 37.0085 87.6829 37.4357C87.7707 37.7011 87.81 37.9789 87.8006 38.2724C87.7909 38.5659 87.7212 38.8268 87.5908 39.0546C87.4601 39.2818 87.2717 39.47 87.0247 39.6176ZM86.7955 38.8169C87.0088 38.6894 87.1493 38.524 87.2174 38.3201C87.2856 38.1169 87.2867 37.915 87.2203 37.7158C87.1542 37.5164 87.0423 37.3834 86.8845 37.3166C86.7264 37.2489 86.5398 37.2794 86.3236 37.4086C86.1136 37.5341 85.974 37.699 85.9056 37.9021C85.8369 38.1041 85.8356 38.3051 85.902 38.5046C85.9681 38.7037 86.0803 38.8377 86.2384 38.9056C86.3969 38.9741 86.5831 38.9438 86.7955 38.8169ZM86.6838 33.368L86.3394 33.4664C86.4799 33.5449 86.6001 33.6652 86.7 33.8274C86.7994 33.9911 86.8654 34.1747 86.8976 34.3781C86.9305 34.5858 86.926 34.781 86.8846 34.9651C86.8427 35.1493 86.7661 35.2959 86.6552 35.4054C86.5442 35.5138 86.38 35.5992 86.1634 35.661L84.7088 36.0762L84.5796 35.259L85.6357 34.9575C85.9596 34.865 86.1552 34.7935 86.2234 34.7417C86.2912 34.6915 86.3404 34.6203 86.3707 34.5287C86.4007 34.4368 86.4056 34.3297 86.3862 34.2076C86.3641 34.0676 86.3162 33.9504 86.2418 33.8565C86.1667 33.7626 86.0845 33.7075 85.9939 33.6907C85.9025 33.6744 85.692 33.7125 85.3631 33.8063L84.3934 34.0832L84.2641 33.2663L86.5637 32.6096L86.6838 33.368ZM86.3781 30.9406L86.4214 31.7742L84.0762 31.9946L84.0359 31.2207L84.3691 31.1893C84.2046 31.0717 84.0943 30.962 84.0392 30.8613C83.9838 30.7596 83.9519 30.6424 83.9449 30.5078C83.9351 30.3173 83.9647 30.1315 84.034 29.9479L84.5879 30.1555C84.5282 30.3014 84.501 30.4351 84.5073 30.5557C84.5132 30.6731 84.5419 30.769 84.5944 30.8457C84.6461 30.9234 84.736 30.978 84.8636 31.0128C84.9912 31.0477 85.2547 31.0462 85.6536 31.0088L86.3781 30.9406ZM83.6726 29.4249L83.0968 29.4384L83.0859 28.6029L83.6617 28.5894L83.6726 29.4249ZM86.3421 29.3621L83.9914 29.4172L83.9806 28.582L86.3312 28.5269L86.3421 29.3621ZM85.6397 27.8422L85.6212 26.9946C85.7444 26.9789 85.8423 26.9225 85.9145 26.8239C85.9868 26.7264 86.0322 26.5805 86.05 26.3852C86.0695 26.1705 86.0551 26.0045 86.0056 25.8868C85.9719 25.8067 85.9196 25.7611 85.8513 25.75C85.8043 25.7421 85.7632 25.7557 85.7289 25.7898C85.6959 25.8263 85.6603 25.9148 85.6226 26.0538C85.4519 26.7046 85.3126 27.1122 85.2056 27.2767C85.0569 27.5036 84.8701 27.5989 84.6457 27.5619C84.4439 27.5285 84.2835 27.3936 84.1657 27.1564C84.0475 26.9188 84.0088 26.5751 84.05 26.1248C84.0891 25.6955 84.1709 25.3848 84.2935 25.1932C84.4168 25.0018 84.5837 24.884 84.7949 24.8392L84.8306 25.6388C84.7368 25.657 84.6613 25.7091 84.6047 25.7948C84.5474 25.8804 84.5111 26.0096 84.4953 26.1828C84.4755 26.4015 84.4837 26.5613 84.5207 26.6636C84.5472 26.7314 84.5864 26.7696 84.6374 26.7782C84.6816 26.7853 84.7208 26.7641 84.7567 26.7138C84.8047 26.6462 84.8861 26.3977 85.0016 25.9677C85.1163 25.5384 85.2359 25.2454 85.3606 25.0881C85.4869 24.9329 85.6476 24.8717 85.8433 24.9039C86.0573 24.9391 86.2308 25.0894 86.3625 25.3556C86.4943 25.6206 86.5385 25.9882 86.4955 26.4586C86.4565 26.8856 86.3612 27.2128 86.2091 27.4412C86.0582 27.6688 85.8678 27.8023 85.6397 27.8422ZM83.7021 22.3891L84.8546 22.8039C84.6804 22.4617 84.6286 22.1097 84.7008 21.7481C84.7379 21.5617 84.7974 21.4042 84.8785 21.2726C84.9591 21.1422 85.0474 21.053 85.1421 21.0062C85.2374 20.9596 85.3361 20.9395 85.4387 20.9469C85.5408 20.9529 85.6946 20.9937 85.8982 21.0669L87.2303 21.5465L87.0694 22.3535L85.8694 21.9215C85.6313 21.836 85.477 21.7972 85.4068 21.8046C85.3364 21.8129 85.2752 21.8485 85.2219 21.9123C85.1683 21.9762 85.1301 22.0662 85.1068 22.1832C85.0799 22.3175 85.0803 22.4458 85.1083 22.5684C85.1353 22.6914 85.193 22.7953 85.2812 22.8785C85.3693 22.9629 85.5089 23.0393 85.6994 23.1078L86.8374 23.5175L86.6764 24.3245L83.5412 23.196L83.7021 22.3891ZM88.4023 18.346L86.091 16.4806L85.5952 17.5892L85.1241 17.2092L86.4526 14.2393L86.9234 14.6193L86.4289 15.7252L88.7401 17.5908L88.4023 18.346ZM88.2428 15.4365C88.0895 15.251 87.9751 15.0195 87.899 14.7443C87.8241 14.4697 87.8106 14.1923 87.8603 13.9149C87.9094 13.6368 88.0108 13.3826 88.1649 13.1524C88.4027 12.7978 88.6838 12.6104 89.0078 12.5912C89.3317 12.5721 89.6245 12.7212 89.8869 13.0384C90.1507 13.3574 90.2928 13.7372 90.3136 14.1764C90.334 14.6162 90.2274 15.009 89.9944 15.3567C89.8496 15.5725 89.6767 15.7336 89.4733 15.8413C89.2698 15.9491 89.064 15.9693 88.8561 15.902C88.6484 15.8342 88.4439 15.6796 88.2428 15.4365ZM88.6943 14.8295C88.8678 15.0394 89.0372 15.1446 89.2037 15.145C89.3696 15.1463 89.5072 15.0655 89.616 14.9032C89.7247 14.741 89.7696 14.5494 89.7509 14.3287C89.7326 14.1072 89.6358 13.8905 89.4602 13.6779C89.2892 13.4713 89.1204 13.3668 88.9546 13.3656C88.7892 13.3635 88.6521 13.4437 88.5434 13.6059C88.4345 13.7679 88.3892 13.9604 88.4074 14.182C88.4252 14.4042 88.5214 14.6205 88.6943 14.8295ZM92.7388 11.7595L92.2966 12.258L92.0745 11.9025C92.0875 12.124 92.0648 12.3244 92.0069 12.5049C91.949 12.6855 91.8692 12.8325 91.7673 12.9474C91.5599 13.1809 91.3131 13.2687 91.0253 13.2112C90.7385 13.1527 90.4693 12.9237 90.2189 12.5231C89.9626 12.1126 89.8395 11.7198 89.85 11.345C89.8605 10.97 89.975 10.658 90.1946 10.4104C90.3954 10.1842 90.6402 10.1004 90.9275 10.1595L90.176 8.95657L90.6524 8.41947L92.7388 11.7595ZM90.6786 11.9309C90.8398 12.1892 90.983 12.3459 91.1086 12.4016C91.289 12.4819 91.4491 12.4445 91.587 12.2892C91.697 12.1653 91.7509 11.997 91.7496 11.7853C91.7481 11.5737 91.6695 11.3426 91.5141 11.0938C91.3408 10.8162 91.1777 10.658 91.0275 10.6195C90.8764 10.5814 90.7425 10.6278 90.6256 10.7596C90.5128 10.8868 90.4563 11.054 90.4551 11.2605C90.4537 11.4671 90.5285 11.6905 90.6786 11.9309ZM92.7948 9.0343L92.2551 9.29492C92.1962 8.9877 92.2067 8.71925 92.2861 8.48761C92.3665 8.25666 92.5379 8.03813 92.8022 7.83312C93.0431 7.64632 93.2383 7.54637 93.3889 7.53139C93.5391 7.51729 93.6636 7.5493 93.762 7.63017C93.8606 7.71084 93.9772 7.90753 94.1125 8.2221L94.4698 9.07151C94.5728 9.31166 94.6577 9.4826 94.7246 9.58325C94.7903 9.6834 94.8759 9.78111 94.9789 9.87471L94.4457 10.2884C94.411 10.2508 94.3629 10.1934 94.3021 10.115C94.2751 10.0784 94.2565 10.0553 94.2464 10.0444C94.2059 10.2364 94.1463 10.4019 94.0678 10.544C93.9887 10.685 93.8895 10.8017 93.7704 10.8942C93.5611 11.0564 93.3626 11.1084 93.1768 11.0496C92.99 10.9908 92.8467 10.8438 92.7463 10.6101C92.6801 10.4562 92.6483 10.2969 92.6509 10.1329C92.6538 9.96909 92.6914 9.81675 92.7627 9.67596C92.8339 9.53508 92.953 9.36766 93.1189 9.17479C93.3427 8.91643 93.4919 8.72111 93.5654 8.59139L93.5344 8.51943C93.4744 8.37962 93.4064 8.30101 93.3298 8.28084C93.2533 8.26155 93.1443 8.3061 93.0023 8.41633C92.9061 8.49094 92.8423 8.57435 92.8107 8.66687C92.7785 8.7587 92.7735 8.88079 92.7948 9.0343ZM93.7679 9.06279C93.7123 9.14699 93.619 9.26868 93.4877 9.42778C93.3569 9.58658 93.2775 9.70445 93.2485 9.78111C93.2075 9.903 93.2085 10.015 93.2529 10.1178C93.2966 10.2195 93.3621 10.285 93.4502 10.315C93.5383 10.3452 93.6253 10.3269 93.7125 10.2593C93.81 10.1837 93.8839 10.069 93.9356 9.91534C93.9729 9.79922 93.9811 9.68634 93.9608 9.57561C93.9486 9.50307 93.9045 9.3803 93.8302 9.20681L93.7679 9.06279ZM94.318 6.73641L94.9361 6.41754L96.0591 8.24031L95.9739 5.8825L96.5749 5.57243L96.611 8.80932L96.6188 9.39478C96.6174 9.59265 96.6061 9.74929 96.5862 9.86374C96.5656 9.97897 96.5335 10.0791 96.4899 10.1669C96.4459 10.2536 96.3852 10.336 96.3066 10.4127C96.228 10.4889 96.134 10.5559 96.0232 10.613C95.9118 10.6704 95.7978 10.7109 95.6809 10.7354L95.4546 10.1506C95.5527 10.1282 95.6378 10.0974 95.7113 10.0595C95.8459 9.99014 95.931 9.88548 95.9655 9.74596C95.9996 9.60655 96.0107 9.4452 95.9982 9.26242L94.318 6.73641ZM99.0187 7.88629L98.6794 3.54994L100.893 3.23753L100.95 3.97132L99.389 4.1918L99.4693 5.21753L100.817 5.02731L100.874 5.76129L99.5267 5.95152L99.6708 7.79416L99.0187 7.88629ZM101.782 7.56007L101.725 3.20062L102.347 3.18604L102.404 7.54548L101.782 7.56007ZM103.023 5.91686C103.044 5.64126 103.116 5.38083 103.237 5.13666C103.359 4.89357 103.518 4.71587 103.714 4.607C103.91 4.49677 104.123 4.45731 104.352 4.48982C104.706 4.53955 104.984 4.73496 105.186 5.07596C105.388 5.41677 105.47 5.82248 105.433 6.29388C105.396 6.76842 105.251 7.14594 104.999 7.42692C104.746 7.70742 104.446 7.82236 104.1 7.7736C103.885 7.74335 103.686 7.64985 103.502 7.49213C103.317 7.33441 103.184 7.12264 103.103 6.85693C103.021 6.59142 102.994 6.27822 103.023 5.91686ZM103.653 6.05079C103.629 6.36271 103.665 6.60874 103.763 6.78996C103.86 6.97099 103.989 7.0729 104.151 7.09581C104.312 7.11863 104.454 7.05479 104.576 6.9047C104.699 6.75452 104.772 6.5222 104.797 6.20626C104.821 5.89914 104.785 5.65418 104.688 5.47316C104.592 5.29233 104.463 5.19022 104.302 5.1676C104.14 5.14469 103.998 5.20833 103.875 5.35851C103.751 5.5084 103.678 5.74004 103.653 6.05079ZM107.258 8.60275L107.343 8.14397C107.229 8.27947 107.096 8.37179 106.944 8.42104C106.79 8.4692 106.639 8.46862 106.489 8.41839C106.335 8.36709 106.206 8.27585 106.101 8.14524C105.997 8.01415 105.932 7.85731 105.907 7.6754C105.884 7.49399 105.898 7.25824 105.952 6.96942L106.312 5.03112L106.915 5.2332L106.654 6.64076C106.574 7.07222 106.536 7.33998 106.541 7.44484C106.544 7.54881 106.571 7.63937 106.619 7.71623C106.667 7.79279 106.737 7.84546 106.827 7.87552C106.93 7.91027 107.029 7.90371 107.125 7.85515C107.221 7.80562 107.294 7.73052 107.345 7.6286C107.396 7.52531 107.462 7.25461 107.544 6.8164L107.784 5.52407L108.387 5.72614L107.818 8.79052L107.258 8.60275ZM108.961 9.53283L108.393 9.1932L109.349 6.30798L109.876 6.62352L109.74 7.03325C109.895 6.89345 110.019 6.81434 110.111 6.79603C110.204 6.77831 110.296 6.79554 110.388 6.85047C110.517 6.928 110.626 7.05029 110.714 7.21878L110.317 7.7783C110.25 7.63888 110.174 7.54392 110.092 7.49487C110.012 7.4469 109.936 7.43564 109.861 7.46217C109.785 7.48704 109.707 7.5679 109.625 7.70301C109.542 7.83782 109.419 8.15111 109.256 8.64181L108.961 9.53283ZM111.319 7.11686L111.607 6.44691L112.146 6.86456L111.858 7.53472L111.319 7.11686ZM109.984 10.2227L111.16 7.48792L111.699 7.90557L110.523 10.6406L109.984 10.2227ZM111.315 10.2231L111.871 10.6255C111.819 10.7766 111.807 10.9189 111.834 11.0522C111.861 11.1848 111.932 11.3105 112.049 11.429C112.178 11.5592 112.292 11.6253 112.393 11.6266C112.461 11.6276 112.517 11.5895 112.558 11.5158C112.587 11.4647 112.598 11.4102 112.594 11.3531C112.586 11.2964 112.547 11.211 112.477 11.0976C112.142 10.5733 111.949 10.2077 111.897 10.0009C111.825 9.71434 111.857 9.44951 111.993 9.2071C112.115 8.98888 112.282 8.86982 112.494 8.85152C112.706 8.83242 112.947 8.95951 113.217 9.23256C113.474 9.49269 113.634 9.74322 113.696 9.98162C113.758 10.2207 113.75 10.4737 113.674 10.7418L113.14 10.3836C113.175 10.2655 113.179 10.1515 113.153 10.0428C113.126 9.93345 113.061 9.82654 112.957 9.72149C112.826 9.58912 112.719 9.51873 112.634 9.5107C112.577 9.50777 112.533 9.5342 112.502 9.58932C112.475 9.637 112.469 9.69329 112.484 9.76026C112.504 9.84984 112.623 10.0688 112.843 10.4181C113.062 10.766 113.191 11.0519 113.23 11.2758C113.267 11.5 113.226 11.7178 113.108 11.9293C112.978 12.1606 112.794 12.2871 112.557 12.3073C112.32 12.3282 112.061 12.1957 111.779 11.9105C111.523 11.6515 111.36 11.3772 111.289 11.0862C111.218 10.7968 111.227 10.5086 111.315 10.2231ZM115.795 10.7514L114.937 11.865C115.245 11.8406 115.496 11.9623 115.69 12.2315C115.79 12.3703 115.859 12.52 115.902 12.681C115.943 12.8413 115.955 12.9886 115.936 13.1218C115.917 13.2555 115.879 13.3797 115.821 13.4939C115.765 13.6082 115.659 13.7643 115.508 13.9611L114.516 15.248L114.084 14.6471L114.977 13.4876C115.155 13.2578 115.259 13.1002 115.29 13.0156C115.321 12.9302 115.33 12.8413 115.317 12.7469C115.303 12.6526 115.266 12.5621 115.203 12.4749C115.131 12.375 115.049 12.3094 114.957 12.2781C114.864 12.2459 114.768 12.259 114.67 12.3176C114.571 12.3755 114.45 12.4969 114.308 12.6808L113.46 13.7803L113.028 13.1793L115.363 10.1506L115.795 10.7514ZM116.019 18.2295L118.33 16.364L117.834 15.2552L118.305 14.8752L119.634 17.845L119.163 18.2253L118.668 17.1194L116.357 18.9848L116.019 18.2295ZM117.826 19.4277C118.017 19.3241 118.222 19.2874 118.44 19.3162C118.656 19.3462 118.848 19.4515 119.012 19.6331C119.176 19.8141 119.302 20.048 119.388 20.335C119.521 20.7775 119.523 21.1989 119.394 21.5989C119.265 21.9984 119.037 22.2862 118.709 22.4639C118.38 22.6428 118.064 22.6479 117.761 22.4806C117.458 22.3123 117.242 22.0113 117.111 21.5776C117.03 21.3083 116.998 21.0289 117.015 20.736C117.033 20.4432 117.109 20.1858 117.245 19.9642C117.382 19.7433 117.575 19.564 117.826 19.4277ZM118.034 20.2389C117.817 20.3565 117.673 20.5149 117.6 20.7157C117.526 20.9155 117.52 21.1172 117.581 21.3194C117.641 21.5218 117.75 21.66 117.906 21.7343C118.062 21.8093 118.249 21.7875 118.469 21.6684C118.682 21.5527 118.826 21.3947 118.899 21.1951C118.973 20.9962 118.98 20.7955 118.919 20.5931C118.858 20.3908 118.749 20.2516 118.593 20.1766C118.437 20.1004 118.25 20.1219 118.034 20.2389ZM120.142 23.2695L120.212 24.0341L119.894 24.0866C120.166 24.3189 120.32 24.625 120.354 25.0028C120.373 25.2031 120.358 25.3825 120.31 25.54C120.262 25.6982 120.18 25.8342 120.064 25.9496C120.201 26.0661 120.307 26.1998 120.384 26.3488C120.46 26.498 120.506 26.6632 120.522 26.8444C120.543 27.0743 120.526 27.2755 120.471 27.4462C120.417 27.617 120.324 27.7526 120.198 27.8534C120.103 27.9273 119.944 27.9822 119.722 28.019L118.23 28.265L118.154 27.4358L119.488 27.2157C119.719 27.1774 119.866 27.1247 119.928 27.0562C120.009 26.9652 120.042 26.84 120.028 26.6806C120.017 26.5637 119.981 26.4593 119.918 26.3654C119.857 26.2722 119.773 26.2113 119.666 26.1828C119.56 26.1544 119.398 26.1575 119.178 26.1938L118.057 26.3786L117.981 25.5495L119.26 25.3386C119.488 25.301 119.632 25.2617 119.696 25.2216C119.759 25.1817 119.804 25.1273 119.83 25.0605C119.857 24.9927 119.866 24.9064 119.856 24.7995C119.844 24.6716 119.808 24.5609 119.747 24.4677C119.687 24.3733 119.606 24.312 119.505 24.2838C119.404 24.2551 119.242 24.2596 119.018 24.2965L117.884 24.4836L117.808 23.6543L120.142 23.2695ZM119.372 29.0595C119.578 29.0788 119.774 29.1663 119.96 29.3205C120.145 29.4751 120.283 29.6826 120.371 29.942C120.46 30.2017 120.496 30.4861 120.48 30.7947C120.455 31.2708 120.32 31.6511 120.073 31.9341C119.827 32.2171 119.528 32.3419 119.176 32.3087C118.821 32.2755 118.536 32.0938 118.318 31.765C118.1 31.4353 118.004 31.0374 118.028 30.5707C118.043 30.2812 118.106 30.0112 118.217 29.7578C118.328 29.5049 118.481 29.3187 118.675 29.1997C118.87 29.0814 119.102 29.0341 119.372 29.0595ZM119.294 29.9111C119.062 29.8891 118.88 29.9465 118.749 30.0837C118.617 30.22 118.546 30.3976 118.534 30.6153C118.523 30.8328 118.575 31.0211 118.691 31.1795C118.807 31.339 118.983 31.4297 119.219 31.452C119.448 31.4734 119.629 31.416 119.76 31.28C119.891 31.1447 119.963 30.9682 119.974 30.7504C119.986 30.5329 119.933 30.3438 119.817 30.184C119.701 30.0236 119.527 29.9328 119.294 29.9111ZM117.749 33.5635L117.888 32.7494L120.179 33.4599L120.049 34.2157L119.724 34.1148C119.855 34.2919 119.937 34.4402 119.968 34.5583C119.999 34.6772 120.004 34.8017 119.981 34.933C119.949 35.119 119.88 35.2851 119.774 35.4336L119.29 35.0175C119.378 34.9015 119.434 34.7843 119.454 34.6664C119.474 34.5517 119.467 34.4487 119.434 34.355C119.401 34.2604 119.327 34.1728 119.212 34.0895C119.098 34.006 118.846 33.9038 118.456 33.783L117.749 33.5635ZM117.289 35.8426L117.492 35.0525L119.715 36.0807L119.527 36.8142L119.211 36.6682C119.328 36.8629 119.397 37.0217 119.419 37.1434C119.44 37.266 119.436 37.3905 119.403 37.518C119.357 37.6986 119.275 37.8541 119.158 37.9867L118.709 37.505C118.806 37.402 118.87 37.2931 118.899 37.179C118.928 37.0674 118.929 36.9641 118.904 36.8662C118.879 36.7676 118.812 36.6701 118.704 36.5712C118.597 36.4721 118.354 36.335 117.976 36.1603L117.289 35.8426ZM118.048 37.857C118.234 37.9784 118.391 38.1584 118.521 38.3947C118.649 38.6313 118.719 38.8928 118.728 39.1778C118.738 39.4632 118.693 39.7453 118.592 40.0236C118.436 40.4524 118.204 40.7368 117.897 40.875C117.589 41.0135 117.277 40.9786 116.96 40.7708C116.641 40.5618 116.427 40.2495 116.316 39.835C116.207 39.4198 116.228 39.0026 116.381 38.582C116.476 38.321 116.609 38.1024 116.783 37.9233C116.956 37.7445 117.15 37.6486 117.363 37.6365C117.577 37.6249 117.805 37.6977 118.048 37.857ZM117.739 38.6074C117.529 38.47 117.345 38.4317 117.185 38.4929C117.025 38.5531 116.909 38.6818 116.838 38.8778C116.767 39.0741 116.763 39.2749 116.826 39.4801C116.889 39.6861 117.027 39.8587 117.239 39.9981C117.446 40.1334 117.629 40.1713 117.789 40.111C117.949 40.0518 118.064 39.9239 118.135 39.7279C118.206 39.5316 118.211 39.33 118.148 39.1238C118.085 38.9165 117.948 38.7445 117.739 38.6074ZM115.316 41.096L117.641 42.1979L117.277 42.8463L115.782 42.0735L116.769 43.7535L116.407 44.3974L114.941 43.5724L115.901 45.3003L115.532 45.958L114.109 43.2475L114.468 42.6063L115.92 43.3941L114.952 41.7444L115.316 41.096Z" fill="#1B1918"/>
<path fill-rule="evenodd" clip-rule="evenodd" d="M111.742 32.4965L105.435 42.2174L96.6719 25.8969L102.448 16.2651C102.448 16.2651 111.676 32.5857 111.742 32.4965Z" fill="white"/>
<path fill-rule="evenodd" clip-rule="evenodd" d="M104.464 22.6122L100.613 28.409L100.461 28.6384L100.299 28.4216L98.1084 25.4786L97.9629 25.2831L98.1017 25.0783L102.151 19.1031L102.313 18.8645L102.472 19.1065C102.477 19.1147 104.418 22.0825 104.495 22.2903L104.561 22.4664L104.464 22.6122ZM100.443 27.7942L104.026 22.4006C103.724 21.9041 102.704 20.3381 102.308 19.7321L98.5594 25.2637L100.443 27.7942Z" fill="#1B1918"/>
<path fill-rule="evenodd" clip-rule="evenodd" d="M104.807 26.9536L105.316 29.2459C104.968 28.8547 104.626 28.6486 104.293 28.6318C103.961 28.6137 103.658 28.7796 103.382 29.1317C102.99 29.6324 102.83 30.2277 102.902 30.9147C102.973 31.6019 103.271 32.3145 103.792 33.0506C104.94 34.6727 106.009 34.8531 106.997 33.5912L107.501 32.9476L105.956 30.7659L105.168 31.7725C104.998 31.9909 104.866 32.1347 104.775 32.2043C104.682 32.274 104.572 32.311 104.443 32.3136L104.369 32.2091C104.498 32.1893 104.609 32.1427 104.7 32.0704C104.792 31.9991 104.922 31.8553 105.092 31.6384L105.87 30.644L105.71 30.4172L104.84 31.5275L104.699 31.7076C104.389 32.1046 104.125 32.1517 103.911 31.849C103.828 31.7313 103.782 31.5983 103.775 31.4468C103.767 31.2953 103.801 31.1733 103.873 31.0804C103.928 31.011 103.995 30.9768 104.073 30.9778C104.151 30.9792 104.216 31.0164 104.268 31.0896C104.355 31.2129 104.373 31.327 104.32 31.4329L104.258 31.5499C104.24 31.5899 104.237 31.6207 104.252 31.6406C104.277 31.6765 104.325 31.6516 104.394 31.5628L104.501 31.4264L106.565 28.7897L106.534 29.9073L108.002 31.9801L108.729 31.9303L107.131 33.9726L106.815 34.3763C106.55 34.7146 106.301 34.9513 106.066 35.0846C105.832 35.2194 105.547 35.2884 105.213 35.2938C104.428 35.3135 103.73 34.891 103.117 34.0245C102.484 33.131 102.189 32.1801 102.23 31.1719C102.264 30.2898 102.52 29.5452 102.995 28.938C103.208 28.6665 103.488 28.4044 103.834 28.1557C104.189 27.8989 104.412 27.7132 104.501 27.5986C104.633 27.4308 104.735 27.2157 104.807 26.9536ZM105.18 26.9773L105.645 29.0736L105.538 29.1232L105.073 27.0188L105.18 26.9773ZM104.632 28.8952L104.537 28.913C104.14 28.9893 103.842 29.1543 103.646 29.4038C103.408 29.7081 103.283 30.0834 103.271 30.5308C103.265 30.8584 103.33 31.1954 103.468 31.5358C103.605 31.8792 103.831 32.2733 104.146 32.7179C104.547 33.2845 104.895 33.6647 105.19 33.8567C105.485 34.0499 105.831 34.1245 106.224 34.0819L106.256 34.1278C105.878 34.2423 105.511 34.1921 105.155 33.9773C104.801 33.7609 104.41 33.3528 103.984 32.7504C103.514 32.0862 103.241 31.4513 103.166 30.8452C103.091 30.2392 103.221 29.7227 103.557 29.2943C103.848 28.922 104.201 28.7799 104.615 28.8709L104.632 28.8952ZM106.868 28.8561L106.852 29.7012L108.247 31.672L109.335 31.8123L108.084 33.3856L106.971 34.8408C106.899 34.9322 106.842 34.9987 106.801 35.0406C106.655 35.1885 106.469 35.2817 106.24 35.3173L106.307 35.2326C106.508 35.1359 106.731 34.9306 106.978 34.6156L107.131 34.4119L109.079 31.9225L108.193 31.8311L106.735 29.7713L106.749 28.824L106.868 28.8561Z" fill="#1B1918"/>
<path fill-rule="evenodd" clip-rule="evenodd" d="M105.138 42.5727L101.38 44.1789L91.2891 26.4315L98.5919 15.3728H99.9197L92.816 25.5397L96.2018 25.8964L105.138 42.5727Z" fill="white"/>
<path fill-rule="evenodd" clip-rule="evenodd" d="M94.7097 21.2288L94.7316 21.0815L93.8984 19.9033L94.907 18.9608L95.6964 19.7266L94.7097 21.2288Z" fill="#E30016"/>
<path fill-rule="evenodd" clip-rule="evenodd" d="M38.748 99.4735L40.8438 107.651V99.4735H41.8849V108.963H40.1467L38.0506 100.873V108.963H37.0098V99.4735H38.748ZM43.127 104.879C43.1306 104.192 43.1896 103.677 43.3046 103.335C43.4841 102.825 43.8065 102.49 44.2713 102.334C44.4883 102.258 44.7167 102.219 44.9569 102.219C45.1952 102.219 45.4236 102.258 45.6444 102.334C45.9335 102.432 46.1639 102.596 46.3319 102.825C46.6248 103.225 46.775 103.909 46.783 104.879V106.533C46.7866 107.408 46.6718 108.028 46.4392 108.391C46.1425 108.867 45.6562 109.104 44.9802 109.099C43.9081 109.113 43.3088 108.573 43.1778 107.484C43.1407 107.197 43.1228 106.88 43.127 106.533V104.879ZM44.1678 106.535L44.1857 107.174C44.2186 107.842 44.4802 108.175 44.9687 108.171C45.3086 108.162 45.5351 107.969 45.6444 107.592C45.7086 107.371 45.7421 107.02 45.7421 106.535V104.771C45.7421 103.68 45.4786 103.138 44.9527 103.147C44.4784 103.138 44.2244 103.471 44.1914 104.144L44.1678 104.771V106.535ZM48.9235 102.355V106.811C48.9278 107.282 48.9509 107.585 48.9918 107.72C49.0956 108.028 49.3007 108.18 49.6112 108.171C49.8122 108.175 49.9821 108.118 50.1208 107.997C50.2908 107.856 50.4022 107.635 50.453 107.33C50.4821 107.151 50.4978 106.953 50.4978 106.737V102.355H51.5386V108.963H50.4978V108.38L50.3022 108.648C50.0447 108.949 49.6949 109.099 49.2554 109.099C48.8669 109.099 48.5388 108.966 48.2714 108.701C48.0232 108.456 47.8963 108.081 47.8887 107.578L47.8828 106.863V102.355H48.9235ZM53.7435 102.355V103.167C53.9037 102.839 54.0915 102.607 54.3042 102.467C54.4448 102.373 54.5834 102.308 54.7163 102.272L55.0482 102.219V103.43L54.6988 103.471C54.3256 103.523 54.0679 103.707 53.927 104.022C53.8042 104.313 53.7435 104.745 53.7435 105.315V108.963H52.7027V102.355H53.7435ZM55.8881 102.355H56.929V108.963H55.8881V102.355ZM56.9702 99.4598V100.698H55.847V99.4598H56.9702ZM58.9426 106.951V107.194L58.9599 107.463C59.0244 107.948 59.2531 108.185 59.6476 108.171C60.1125 108.166 60.3528 107.902 60.3684 107.376C60.3684 107.197 60.3291 107.036 60.2528 106.898C60.1496 106.726 60.0208 106.565 59.8642 106.413L59.3432 105.954L58.7941 105.469C58.5461 105.242 58.3663 105.026 58.257 104.824C58.1184 104.578 58.0519 104.263 58.0558 103.882C58.0558 102.777 58.6027 102.223 59.6984 102.219C59.9834 102.219 60.2492 102.265 60.493 102.355C60.9735 102.529 61.2412 102.926 61.2942 103.544L61.3114 104.05V104.266H60.2706V104.056V103.813C60.2355 103.379 60.0365 103.156 59.6691 103.147C59.2959 103.142 59.1046 103.372 59.0969 103.834C59.0969 104.004 59.1298 104.146 59.1947 104.259C59.2784 104.406 59.4135 104.564 59.6007 104.729L60.2473 105.288C60.8156 105.758 61.1632 106.161 61.2881 106.494C61.3664 106.714 61.4054 106.965 61.4093 107.247C61.4015 107.845 61.2335 108.309 60.9054 108.642C60.6045 108.943 60.1908 109.094 59.6633 109.099C58.5989 109.095 58.0187 108.568 57.919 107.523L57.9018 107.188V106.951H58.9426ZM62.3587 99.4598H63.3995V102.933L63.6008 102.704C63.9091 102.375 64.2608 102.214 64.6595 102.219C65.5128 102.232 65.96 102.729 65.9971 103.707L66.0147 104.5V108.963H64.9739V104.776L64.968 104.284C64.9566 103.926 64.9137 103.664 64.8374 103.496C64.7301 103.269 64.5345 103.151 64.2534 103.147C63.8784 103.147 63.634 103.317 63.5209 103.659C63.4545 103.841 63.4193 104.025 63.4116 104.213L63.3998 104.75V108.963H62.359L62.3587 99.4598ZM74.3914 99.4735V100.544H72.5261V108.963H71.4169V100.544H69.5518V99.4735H74.3914ZM73.8091 104.879C73.8127 104.192 73.8717 103.677 73.9867 103.335C74.1662 102.825 74.4886 102.49 74.9537 102.334C75.1707 102.258 75.3991 102.219 75.6393 102.219C75.8776 102.219 76.1061 102.258 76.3265 102.334C76.6156 102.432 76.8463 102.596 77.0143 102.825C77.3069 103.225 77.4574 103.909 77.4651 104.879V106.533C77.4694 107.408 77.3539 108.028 77.1217 108.391C76.8249 108.867 76.3383 109.104 75.6624 109.099C74.5902 109.113 73.9909 108.573 73.8599 107.484C73.8228 107.197 73.8049 106.88 73.8091 106.533V104.879ZM74.8499 106.535L74.8678 107.174C74.9007 107.842 75.1624 108.175 75.6511 108.171C75.9908 108.162 76.2173 107.969 76.3265 107.592C76.391 107.371 76.4243 107.02 76.4243 106.535V104.771C76.4243 103.68 76.1607 103.138 75.6352 103.147C75.1604 103.138 74.9068 103.471 74.8736 104.144L74.8499 104.771V106.535ZM82.2325 99.4598V108.963H81.1917V108.359C80.8068 108.862 80.4045 109.108 79.9847 109.099C79.6448 109.103 79.3557 108.991 79.1174 108.759C78.879 108.527 78.727 108.219 78.6624 107.833C78.6059 107.527 78.5765 107.197 78.5765 106.836V104.635C78.5647 103.021 79.0548 102.214 80.0473 102.219C80.4144 102.223 80.7071 102.329 80.9278 102.535C80.9962 102.602 81.0844 102.697 81.1917 102.818V99.4598H82.2325ZM79.6173 106.629C79.6137 106.951 79.621 107.203 79.6407 107.383C79.6743 107.918 79.9084 108.18 80.3442 108.171C80.5959 108.171 80.793 108.068 80.9339 107.861C81.1019 107.615 81.1876 107.116 81.1917 106.368V104.433C81.1917 104.201 81.1741 103.988 81.1409 103.794C81.1058 103.602 81.0313 103.445 80.9163 103.331C80.7952 103.214 80.639 103.151 80.4473 103.147C79.9592 103.151 79.6914 103.473 79.6468 104.109C79.6234 104.33 79.6135 104.583 79.6173 104.869V106.629ZM83.4475 104.231C83.4511 103.953 83.4727 103.712 83.5101 103.512C83.5529 103.25 83.6545 103.016 83.8165 102.807C83.9784 102.6 84.1701 102.455 84.3905 102.373C84.6544 102.274 84.9298 102.223 85.2148 102.219C85.547 102.219 85.848 102.272 86.1192 102.38C86.4588 102.51 86.7051 102.798 86.8633 103.241C86.9434 103.475 86.9824 103.891 86.9824 104.486V108.963H85.9415V108.251C85.7502 108.587 85.5742 108.805 85.4141 108.904C85.209 109.039 84.9627 109.104 84.6758 109.099C84.4669 109.103 84.2794 109.067 84.1151 108.991C83.5823 108.775 83.3188 108.191 83.3264 107.24C83.3264 106.843 83.3615 106.482 83.4296 106.165C83.543 105.612 83.9024 105.244 84.5062 105.06C84.7461 104.984 84.9944 104.934 85.2483 104.914L85.9415 104.886V104.112C85.9336 103.454 85.7013 103.133 85.2441 103.147C84.9649 103.151 84.7679 103.257 84.6487 103.464C84.5647 103.611 84.512 103.868 84.4883 104.231H83.4475ZM85.9415 105.814H85.6387C84.7755 105.862 84.3516 106.326 84.3672 107.201C84.3554 107.842 84.5704 108.166 85.0081 108.171C85.379 108.181 85.6483 107.952 85.8163 107.491C85.8809 107.316 85.9182 107.135 85.9297 106.944L85.9415 106.42V105.814ZM88.7302 102.355L89.6851 107.287L90.7145 102.355H91.7223L89.5934 111.412H88.6091L89.1931 109.096L87.66 102.355H88.7302ZM98.972 99.4735V100.544H96.5406V103.547H98.8804V104.617H96.5406V108.963H95.4314V99.4735H98.972ZM101.015 99.4598V108.963H99.9742V99.4598H101.015ZM102.124 104.879C102.128 104.192 102.187 103.677 102.302 103.335C102.481 102.825 102.804 102.49 103.269 102.334C103.486 102.258 103.714 102.219 103.954 102.219C104.193 102.219 104.421 102.258 104.642 102.334C104.931 102.432 105.161 102.596 105.329 102.825C105.622 103.225 105.773 103.909 105.78 104.879V106.533C105.785 107.408 105.669 108.028 105.437 108.391C105.14 108.867 104.653 109.104 103.978 109.099C102.905 109.113 102.306 108.573 102.175 107.484C102.138 107.197 102.12 106.88 102.124 106.533V104.879ZM103.165 106.535L103.183 107.174C103.216 107.842 103.478 108.175 103.966 108.171C104.306 108.162 104.532 107.969 104.642 107.592C104.706 107.371 104.739 107.02 104.739 106.535V104.771C104.739 103.68 104.476 103.138 103.95 103.147C103.476 103.138 103.222 103.471 103.189 104.144L103.165 104.771V106.535ZM107.921 102.355V106.811C107.925 107.282 107.948 107.585 107.989 107.72C108.093 108.028 108.298 108.18 108.609 108.171C108.809 108.175 108.979 108.118 109.118 107.997C109.288 107.856 109.4 107.635 109.45 107.33C109.479 107.151 109.495 106.953 109.495 106.737V102.355H110.536V108.963H109.495V108.38L109.3 108.648C109.042 108.949 108.692 109.099 108.253 109.099C107.864 109.099 107.536 108.966 107.269 108.701C107.021 108.456 106.894 108.081 106.886 107.578L106.88 106.863V102.355H107.921ZM112.741 102.355V103.167C112.901 102.839 113.089 102.607 113.302 102.467C113.442 102.373 113.581 102.308 113.714 102.272L114.046 102.219V103.43L113.696 103.471C113.323 103.523 113.065 103.707 112.925 104.022C112.802 104.313 112.741 104.745 112.741 105.315V108.963H111.7V102.355H112.741ZM114.885 102.355H115.926V108.963H114.885V102.355ZM115.968 99.4598V100.698H114.845V99.4598H115.968ZM117.94 106.951V107.194L117.957 107.463C118.022 107.948 118.25 108.185 118.645 108.171C119.11 108.166 119.35 107.902 119.366 107.376C119.366 107.197 119.326 107.036 119.25 106.898C119.147 106.726 119.018 106.565 118.862 106.413L118.341 105.954L117.792 105.469C117.543 105.242 117.364 105.026 117.254 104.824C117.116 104.578 117.049 104.263 117.053 103.882C117.053 102.777 117.6 102.223 118.696 102.219C118.981 102.219 119.247 102.265 119.491 102.355C119.971 102.529 120.238 102.926 120.291 103.544L120.309 104.05V104.266H119.268V104.056V103.813C119.233 103.379 119.034 103.156 118.667 103.147C118.294 103.142 118.102 103.372 118.094 103.834C118.094 104.004 118.127 104.146 118.192 104.259C118.276 104.406 118.411 104.564 118.598 104.729L119.245 105.288C119.813 105.758 120.161 106.161 120.285 106.494C120.364 106.714 120.403 106.965 120.407 107.247C120.399 107.845 120.231 108.309 119.903 108.642C119.602 108.943 119.188 109.094 118.661 109.099C117.596 109.095 117.016 108.568 116.917 107.523L116.899 107.188V106.951H117.94ZM121.356 99.4598H122.397V102.933L122.598 102.704C122.907 102.375 123.258 102.214 123.657 102.219C124.51 102.232 124.958 102.729 124.995 103.707L125.012 104.5V108.963H123.971V104.776L123.965 104.284C123.954 103.926 123.911 103.664 123.835 103.496C123.727 103.269 123.532 103.151 123.251 103.147C122.876 103.147 122.632 103.317 122.518 103.659C122.452 103.841 122.417 104.025 122.409 104.213L122.397 104.75V108.963H121.356L121.356 99.4598ZM133.389 99.4735V100.544H131.524V108.963H130.414V100.544H128.549V99.4735H133.389ZM132.806 104.879C132.81 104.192 132.869 103.677 132.984 103.335C133.164 102.825 133.486 102.49 133.951 102.334C134.168 102.258 134.396 102.219 134.637 102.219C134.875 102.219 135.103 102.258 135.324 102.334C135.613 102.432 135.844 102.596 136.012 102.825C136.305 103.225 136.455 103.909 136.462 104.879V106.533C136.467 107.408 136.352 108.028 136.119 108.391C135.822 108.867 135.336 109.104 134.66 109.099C133.587 109.113 132.988 108.573 132.857 107.484C132.82 107.197 132.803 106.88 132.806 106.533V104.879ZM133.848 106.535L133.865 107.174C133.898 107.842 134.16 108.175 134.648 108.171C134.988 108.162 135.215 107.969 135.324 107.592C135.388 107.371 135.422 107.02 135.422 106.535V104.771C135.422 103.68 135.158 103.138 134.632 103.147C134.158 103.138 133.904 103.471 133.871 104.144L133.848 104.771V106.535ZM137.449 102.355H138.49V102.926L138.742 102.63C138.853 102.503 138.98 102.409 139.125 102.347C139.308 102.267 139.507 102.223 139.72 102.219C140.328 102.219 140.748 102.499 140.98 103.059C141.345 102.513 141.785 102.232 142.296 102.219C142.773 102.223 143.138 102.382 143.394 102.697C143.593 102.94 143.699 103.383 143.714 104.029L143.72 104.831V108.963H142.679V104.89L142.673 104.063C142.665 103.448 142.423 103.142 141.947 103.147C141.572 103.147 141.327 103.324 141.214 103.68C141.138 103.889 141.101 104.3 141.105 104.911V108.963H140.064V104.897L140.058 104.081C140.039 103.464 139.791 103.151 139.314 103.147C138.994 103.142 138.775 103.285 138.656 103.571C138.58 103.746 138.533 103.928 138.519 104.112C138.496 104.339 138.486 104.605 138.49 104.911V108.963H137.449L137.449 102.355ZM144.691 104.879C144.695 104.192 144.753 103.677 144.869 103.335C145.048 102.825 145.37 102.49 145.835 102.334C146.052 102.258 146.281 102.219 146.521 102.219C146.759 102.219 146.988 102.258 147.208 102.334C147.497 102.432 147.728 102.596 147.896 102.825C148.189 103.225 148.339 103.909 148.347 104.879V106.533C148.351 107.408 148.236 108.028 148.003 108.391C147.706 108.867 147.22 109.104 146.544 109.099C145.472 109.113 144.873 108.573 144.741 107.484C144.705 107.197 144.687 106.88 144.691 106.533V104.879ZM145.732 106.535L145.749 107.174C145.782 107.842 146.044 108.175 146.533 108.171C146.873 108.162 147.099 107.969 147.208 107.592C147.273 107.371 147.306 107.02 147.306 106.535V104.771C147.306 103.68 147.042 103.138 146.517 103.147C146.042 103.138 145.788 103.471 145.755 104.144L145.732 104.771V106.535ZM150.552 102.355V103.167C150.712 102.839 150.9 102.607 151.113 102.467C151.253 102.373 151.391 102.308 151.524 102.272L151.857 102.219V103.43L151.507 103.471C151.134 103.523 150.876 103.707 150.735 104.022C150.612 104.313 150.552 104.745 150.552 105.315V108.963H149.511V102.355H150.552ZM153.79 102.355V103.167C153.95 102.839 154.138 102.607 154.35 102.467C154.491 102.373 154.63 102.308 154.763 102.272L155.094 102.219V103.43L154.745 103.471C154.372 103.523 154.114 103.707 153.973 104.022C153.85 104.313 153.79 104.745 153.79 105.315V108.963H152.749V102.355H153.79ZM155.706 104.879C155.709 104.192 155.768 103.677 155.883 103.335C156.063 102.825 156.385 102.49 156.85 102.334C157.067 102.258 157.296 102.219 157.536 102.219C157.774 102.219 158.003 102.258 158.223 102.334C158.512 102.432 158.743 102.596 158.911 102.825C159.203 103.225 159.354 103.909 159.362 104.879V106.533C159.366 107.408 159.25 108.028 159.018 108.391C158.721 108.867 158.235 109.104 157.559 109.099C156.487 109.113 155.887 108.573 155.756 107.484C155.719 107.197 155.702 106.88 155.706 106.533V104.879ZM156.746 106.535L156.764 107.174C156.797 107.842 157.059 108.175 157.548 108.171C157.887 108.162 158.114 107.969 158.223 107.592C158.288 107.371 158.321 107.02 158.321 106.535V104.771C158.321 103.68 158.057 103.138 157.532 103.147C157.057 103.138 156.803 103.471 156.77 104.144L156.746 104.771V106.535ZM161.047 102.355L161.918 108.081H161.916L162.752 102.355H164.205L165.132 108.109H165.131L166.002 102.355H166.963L165.812 108.963H164.359L163.443 103.37H163.446L162.598 108.963H161.145L159.994 102.355H161.047Z" fill="#1B1918"/>
<path fill-rule="evenodd" clip-rule="evenodd" d="M172.523 102.952H195.149L190.283 93.514L195.149 84.8004H172.523V102.952Z" fill="#FFCB00" stroke="white" stroke-width="4.35827"/>
<path fill-rule="evenodd" clip-rule="evenodd" d="M27.4592 102.952H4.83398L9.69961 93.514L4.83398 84.8004H27.4592V102.952Z" fill="#FFCB00" stroke="white" stroke-width="4.35827"/>
<path d="M26.6865 62.0793H173.273C177.186 62.0793 180.387 66.38 180.387 71.6361V90.9719H19.5723V71.6361C19.5723 66.38 22.7736 62.0793 26.6865 62.0793Z" fill="url(#paint2_linear_693_5880)" stroke="white" stroke-width="4.35827"/>
<path fill-rule="evenodd" clip-rule="evenodd" d="M19.5898 90.9717H27.4556V102.953L19.5898 90.9717Z" fill="#1B1918"/>
<path fill-rule="evenodd" clip-rule="evenodd" d="M180.389 90.9717H172.523V102.953L180.389 90.9717Z" fill="#1B1918"/>
<path fill-rule="evenodd" clip-rule="evenodd" d="M172.523 102.952H195.149L190.283 93.514L195.149 84.8004H172.523V102.952Z" fill="#F07C00"/>
<path fill-rule="evenodd" clip-rule="evenodd" d="M27.4592 102.952H4.83398L9.69961 93.514L4.83398 84.8004H27.4592V102.952Z" fill="#F07C00"/>
<path d="M26.6865 62.0793H173.273C177.186 62.0793 180.387 66.38 180.387 71.6361V90.9719H19.5723V71.6361C19.5723 66.38 22.7736 62.0793 26.6865 62.0793Z" fill="url(#paint3_linear_693_5880)"/>
<path fill-rule="evenodd" clip-rule="evenodd" d="M19.5898 90.9717H27.4556V102.953L19.5898 90.9717Z" fill="#1B1918"/>
<path fill-rule="evenodd" clip-rule="evenodd" d="M180.389 90.9717H172.523V102.953L180.389 90.9717Z" fill="#1B1918"/>
<path fill-rule="evenodd" clip-rule="evenodd" d="M41.2364 68.943L39.6093 73.9437C39.5051 72.5227 39.2203 71.4319 38.751 70.6796C38.2851 69.9274 37.6704 69.5517 36.9046 69.5517C35.8148 69.5517 34.9657 70.2158 34.3597 71.5388C33.7541 72.8623 33.4513 74.7189 33.4513 77.1009C33.4513 82.3515 34.826 84.9792 37.5724 84.9792H38.9738V77.9178H36.7825C36.3078 77.9178 35.9659 77.8761 35.7611 77.7968C35.5534 77.7133 35.3544 77.537 35.1643 77.2631V76.924C35.3723 77.1702 35.583 77.3325 35.7907 77.4071C35.9987 77.4859 36.3374 77.5229 36.8092 77.5229H38.9738V76.7895H36.5572H36.1649C35.301 76.7895 34.8673 76.2975 34.8673 75.3178C34.8673 74.9375 34.939 74.612 35.0845 74.3381C35.2297 74.0642 35.4052 73.9296 35.6067 73.9296C35.7582 73.9296 35.8917 74.0178 36.0047 74.1894C36.1176 74.3616 36.174 74.5656 36.174 74.8024C36.174 75.202 36.0818 75.4341 35.8949 75.4988L35.6839 75.564C35.6155 75.5917 35.5804 75.6381 35.5804 75.7033C35.5804 75.8191 35.6752 75.8797 35.8682 75.8797H36.1649H41.9045L40.705 77.7133V84.422L41.8185 85.9171H37.3738H36.4946C35.7582 85.9171 35.1496 85.7778 34.6684 85.4941C34.1875 85.216 33.7007 84.7147 33.2078 83.9995C32.0408 82.3281 31.459 80.0948 31.459 77.2907C31.459 74.3987 32.0112 72.1424 33.1127 70.5169C34.0748 69.0922 35.2177 68.3816 36.5392 68.3816C37.1299 68.3816 37.8101 68.5444 38.5729 68.8741C39.357 69.208 39.8734 69.3754 40.1228 69.3754C40.4881 69.3754 40.859 69.2314 41.2364 68.943ZM41.756 69.7928L40.2684 74.3663L40.0606 74.2176L41.557 69.6306L41.756 69.7928ZM38.9738 71.8633L38.8165 71.6869C38.1575 70.9535 37.5516 70.5868 37.0085 70.5868C36.3462 70.5868 35.7761 70.9535 35.2952 71.6869C34.9477 72.2306 34.6951 72.9453 34.544 73.8227C34.3893 74.7054 34.3125 75.8655 34.3125 77.3048C34.3125 79.1386 34.4281 80.5407 34.6596 81.5064C34.8914 82.4767 35.3189 83.3542 35.9363 84.1341V84.2833C35.2652 83.6562 34.7813 82.774 34.4844 81.6368C34.1904 80.499 34.042 78.9575 34.042 77.008C34.042 74.8582 34.3001 73.1868 34.8172 71.9937C35.3336 70.8006 36.0584 70.2059 36.9905 70.2059C37.801 70.2059 38.4632 70.7307 38.9738 71.785V71.8633ZM42.2786 76.6501L41.3819 78.0524V84.4314L42.825 87.0315L39.372 86.9897L36.2423 87.045C36.0434 87.045 35.8917 87.0362 35.7878 87.0174C35.4225 86.9522 35.0546 86.7059 34.6834 86.2698H34.8673C35.2623 86.5437 35.7999 86.6782 36.4855 86.6782L36.9192 86.6641H42.3378L41.1383 84.5843V77.9178L42.1392 76.3392L42.2786 76.6501ZM55.6994 63.6782L55.7528 63.7857L55.6665 63.9338C54.6272 65.6241 53.7722 67.3373 53.0982 69.0781C52.837 69.7375 52.6531 70.2111 52.543 70.4898L49.3066 78.5861V84.1064L50.5683 85.9171H46.3313L47.5845 84.1064V78.5861L45.4971 73.5676L45.0458 72.4345C44.6333 71.4319 44.2947 70.6937 44.0303 70.2341C43.7659 69.7698 43.3771 69.2221 42.8604 68.5856L42.7656 68.4651H47.1567L46.079 70.22L48.9771 77.0451L49.2532 76.3528L46.6699 70.22L47.5845 68.8601L47.7688 69.0781L46.9756 70.22L49.3838 76.0284L51.3344 71.2274C51.8954 69.8304 52.1777 68.7855 52.1777 68.0989C52.1777 67.5183 51.9313 66.8542 51.4386 66.1113C53.1249 65.4754 54.5116 64.6908 55.5952 63.7575L55.6994 63.6782ZM56.094 64.4962V65.0529L56.0077 65.1875C55.521 65.9115 55.1022 66.6362 54.749 67.3649C54.3987 68.089 53.8789 69.3102 53.1903 71.0234L50.0402 78.7718V84.1064L51.5871 87.0315H46.1444L46.0373 86.6641H51.1267L49.8054 84.1064V78.6789L53.0151 70.7636L53.5198 69.5142C54.4194 67.2721 55.2774 65.6007 56.094 64.4962ZM63.0269 68.4651L62.1214 70.0719L63.5495 76.0002L63.897 75.6986L62.6086 70.3406L63.5316 68.6837L63.7576 68.8319L62.8785 70.4246L64.0962 75.4941C64.1672 75.4154 64.2059 75.3642 64.2177 75.346L64.5058 74.9646C64.681 74.7466 64.7907 74.5937 64.8353 74.5009C64.9867 75.5358 65.2185 76.4602 65.5331 77.2772C65.3638 77.2584 65.242 77.249 65.1677 77.249C64.6155 77.249 64.2118 77.3836 63.9562 77.6575L65.5331 84.3385L66.8368 85.9171H62.4451L63.645 84.3385L62.6799 80.3639C62.0413 81.3718 61.5514 82.3281 61.2101 83.2378L61.0082 83.1544C61.3524 82.2681 61.8603 81.2747 62.5398 80.1741L62.6086 80.0395L62.4451 79.4406C61.7532 80.341 61.1831 81.3811 60.7318 82.5696L60.5745 82.1751C60.2717 81.4229 59.8856 80.5642 59.4167 79.6028L59.3307 79.4406C58.8821 80.991 58.6597 82.254 58.6597 83.2243C58.6597 83.7954 58.7216 84.278 58.8466 84.6725C58.971 85.0673 59.2712 85.7267 59.7462 86.6506C59.7876 86.734 59.853 86.8598 59.9393 87.0315H55.2419L55.0667 86.6641H59.4968L59.348 86.3768C58.9655 85.6521 58.7128 85.0903 58.5939 84.6865C58.4754 84.2833 58.4159 83.8091 58.4159 83.2613C58.4159 82.3375 58.6564 80.9586 59.1377 79.1297L58.7574 78.5026C58.6802 78.7906 58.5852 79.2179 58.4696 79.7792L58.1814 81.1673C58.0238 81.9107 57.9467 82.5278 57.9467 83.0198C57.9467 83.5263 58.0033 83.9484 58.113 84.2833C58.2231 84.6218 58.4546 85.0767 58.8078 85.6568C58.8437 85.7126 58.8941 85.8008 58.9655 85.9171H54.6155C55.4438 85.2436 56.0998 84.3432 56.587 83.2107C57.0711 82.0771 57.5491 80.3274 58.0238 77.9595L58.0596 77.7691C57.7539 77.3606 57.3085 77.1097 56.7295 77.0216C57.047 76.274 57.2935 75.4988 57.4687 74.6907C57.5491 74.8118 57.5992 74.8811 57.6172 74.9093L58.0092 75.4806C58.1426 75.6798 58.2999 75.8843 58.4871 76.093L58.6418 75.4941L58.5376 75.3595C58.2498 74.9604 58.0062 74.6402 57.8073 74.394L57.7301 74.2964L57.8698 73.9995C58.1756 74.3151 58.4721 74.6819 58.7574 75.0993L59.9393 70.0155L59.0156 68.4651H63.0269ZM60.8774 72.8295L59.9214 76.7759C59.9748 76.8641 60.0015 76.9199 60.0074 76.9381L60.3665 77.5647C60.5566 77.8896 60.8002 78.3962 61.0972 79.0874L61.1831 79.2924C61.4325 78.7999 61.7294 78.3169 62.071 77.8338L60.8774 72.8295ZM60.4882 71.2509L59.1048 76.9663C59.5444 77.6721 59.9244 78.3727 60.245 79.0598L60.6429 79.9325C60.6487 79.9423 60.6784 79.9978 60.7318 80.1094C60.7823 80.0254 60.8122 79.9748 60.8181 79.9555L60.9395 79.728C60.9574 79.6909 60.9874 79.631 61.0349 79.5517C60.6282 78.5725 60.1558 77.6857 59.6186 76.8964L60.7318 72.2999L60.4882 71.2509ZM65.6012 75.1556C65.7291 75.9725 66.0498 77.0915 66.5574 78.5167C66.4327 78.4891 66.3585 78.4745 66.3409 78.4745L65.6369 78.3816C65.3195 78.3352 65.0847 78.3122 64.9425 78.3122C64.9183 78.3122 64.8591 78.3171 64.7672 78.3263L66.2188 84.3526L68.1607 87.0315H63.122L62.9589 86.6641H67.5759L66.011 84.5007L64.4612 78.0941C64.6601 78.0153 64.8858 77.9731 65.1411 77.9731C65.453 77.9731 65.8033 78.0153 66.1836 78.0941L66.0794 77.7921C65.7082 76.7243 65.4588 75.7591 65.3312 74.8952L65.6012 75.1556ZM78.3805 68.4651C77.7215 68.9993 77.2936 69.4912 77.1006 69.9321C76.8128 70.6243 76.6672 71.6593 76.6672 73.0475V73.9296V85.9171H75.1974L71.0914 73.4564V80.8423L71.0823 81.4557L71.1861 83.4147C71.302 84.3198 71.5664 84.9927 71.9793 85.4247L72.0473 85.5223C71.2486 85.1049 70.8478 83.7673 70.8478 81.5111L70.8569 80.2293V72.7877L70.3845 71.362V79.1944C70.3845 81.6833 70.4886 83.3077 70.6993 84.0788C70.9071 84.8493 71.3971 85.4159 72.1691 85.7685L72.9264 87.0315H68.2111L68.0718 86.6641H72.4305L71.9793 85.9171H67.9233C68.6298 85.5176 69.1019 84.9839 69.3335 84.3104C69.5649 83.6421 69.6808 82.4908 69.6808 80.8564V69.9738L68.523 68.4651H72.9264L71.6911 69.7558L75.9014 82.5977V80.9633L72.2905 69.9738L73.5083 68.6837L73.6746 68.943L72.5966 70.0854L75.9014 80.2293V73.8785V73.1544C75.9014 71.5805 75.818 70.5268 75.6549 69.9926C75.4885 69.4636 75.0818 68.9529 74.4317 68.4651H78.3805ZM78.6833 69.4724L78.5293 69.8809C78.0806 70.0437 77.7778 70.3457 77.6206 70.7819C77.46 71.2227 77.3799 71.9661 77.3799 73.0058V87.0315H75.5094L75.3964 86.6641H77.1452V73.145C77.1452 71.8632 77.2523 70.9722 77.4633 70.4704C77.6739 69.9691 78.0806 69.6353 78.6833 69.4724ZM96.2314 68.6138C95.9319 69.2497 95.6883 69.9091 95.5102 70.6009C95.1566 71.9614 94.9222 72.7924 94.8062 73.1033L94.7616 73.1826C94.7382 73.0851 94.7203 73.0058 94.7085 72.9552C94.5481 72.1372 94.4146 71.5711 94.3103 71.2509C94.2065 70.9352 94.0492 70.6332 93.8412 70.3406C93.3127 69.6071 92.7133 69.2403 92.039 69.2403C91.4184 69.2403 90.9049 69.51 90.4921 70.0484C90.0792 70.5915 89.8744 71.265 89.8744 72.0819C89.8744 73.6047 90.608 74.6443 92.0745 75.1968L93.5446 75.7544C95.6378 76.5432 96.6827 78.2705 96.6827 80.9352C96.6827 82.4256 96.3235 83.6744 95.6078 84.6818C94.8925 85.6944 94.0076 86.1999 92.9504 86.1999C92.2917 86.1999 91.5519 86.0423 90.7324 85.7267L89.7171 85.3323C89.3043 85.1784 88.966 85.1002 88.6987 85.1002C88.3454 85.1002 87.9801 85.2765 87.6031 85.6292L87.5317 85.4388C88.2536 83.7443 88.7582 82.1287 89.0461 80.5966L89.2034 80.666C89.3251 82.087 89.6905 83.1914 90.299 83.9812C90.9075 84.77 91.7066 85.1649 92.6921 85.1649C93.4674 85.1649 94.085 84.8816 94.5451 84.3198C95.0023 83.7584 95.2308 83.0015 95.2308 82.05C95.2308 80.954 94.9133 80.0483 94.2745 79.3336C93.8144 78.8229 92.8761 78.3545 91.4572 77.9178C90.3615 77.5835 89.5658 77.0263 89.0728 76.2464C88.5798 75.4659 88.3333 74.3799 88.3333 72.9969C88.3333 71.5623 88.6629 70.4016 89.3222 69.5053C89.9783 68.6138 90.8366 68.1678 91.8905 68.1678C92.5704 68.1678 93.3602 68.3582 94.2657 68.739C94.6906 68.9206 95.0023 69.0087 95.2041 69.0087C95.489 69.0087 95.801 68.8548 96.1367 68.5491L96.2314 68.6138ZM96.7719 69.185L96.6918 69.389C96.454 70.0155 96.2523 70.6149 96.0829 71.1857C95.6792 72.5185 95.4476 73.2608 95.3972 73.4142L95.3529 73.5118L95.1449 73.3771L95.1804 73.2514C95.3467 72.6531 95.59 71.8732 95.9107 70.9117L96.5016 69.1198L96.5463 69.0087L96.7719 69.185ZM94.2306 71.8915C93.5918 70.8283 92.909 70.2993 92.1783 70.2993C91.7362 70.2993 91.3712 70.4986 91.0827 70.8982C90.792 71.2973 90.6464 71.8033 90.6464 72.4209C90.6464 73.0939 90.9404 73.781 91.5252 74.4915L91.5965 74.5609L91.5519 74.6678C90.7861 74.1341 90.4029 73.3589 90.4029 72.3417C90.4029 71.6358 90.5663 71.0604 90.8899 70.6149C91.2136 70.1694 91.6382 69.9461 92.1611 69.9461C92.6596 69.9461 93.0959 70.1131 93.4703 70.4433C93.8444 70.7772 94.1173 71.242 94.2925 71.8403L94.2306 71.8915ZM96.2314 77.2907C97.0213 78.224 97.4162 79.5052 97.4162 81.1256C97.4162 82.8575 96.9858 84.3244 96.1275 85.5269C95.2696 86.7294 94.2273 87.3283 92.9982 87.3283C92.3714 87.3283 91.8045 87.2307 91.2999 87.0315L89.9073 86.5019C89.5833 86.3768 89.2363 86.3121 88.8651 86.3121C88.5323 86.3121 88.2295 86.4138 87.9505 86.623L87.8466 86.2281C88.1465 86.01 88.4555 85.903 88.767 85.903C89.1174 85.903 89.5123 85.9865 89.9604 86.1492L91.2999 86.6506C91.8342 86.8504 92.3952 86.9479 92.9894 86.9479C94.1472 86.9479 95.1358 86.3674 95.9494 85.2113C96.766 84.0553 97.1727 82.6577 97.1727 81.0192C97.1727 79.631 96.8578 78.4145 96.2314 77.3747V77.2907ZM90.0379 81.209C90.2514 82.8439 90.8278 83.9995 91.7599 84.6771V84.7888C90.6822 84.2968 90.0291 83.1267 89.8031 81.2789L90.0379 81.209ZM88.9514 76.8036L89.248 77.0586C89.4381 77.5928 89.9995 78.0388 90.9254 78.3915L92.3271 78.9392C93.2772 79.3107 93.9098 79.631 94.2273 79.8955C94.5419 80.1647 94.7678 80.5689 94.9016 81.112L94.8391 81.1673C94.5777 80.6989 94.2957 80.3504 93.9929 80.1323C93.6868 79.9185 93.102 79.6492 92.2379 79.3336C90.988 78.8787 90.1447 78.4844 89.7171 78.1541C89.2867 77.825 89.0311 77.3747 88.9514 76.8036ZM106 68.4651L105.094 70.0719L106.523 76.0002L106.87 75.6986L105.582 70.3406L106.505 68.6837L106.73 68.8319L105.852 70.4246L107.069 75.4941C107.14 75.4154 107.179 75.3642 107.19 75.346L107.479 74.9646C107.654 74.7466 107.764 74.5937 107.808 74.5009C107.96 75.5358 108.191 76.4602 108.506 77.2772C108.337 77.2584 108.215 77.249 108.141 77.249C107.589 77.249 107.185 77.3836 106.929 77.6575L108.506 84.3385L109.809 85.9171H105.418L106.618 84.3385L105.653 80.3639C105.014 81.3718 104.524 82.3281 104.183 83.2378L103.981 83.1544C104.325 82.2681 104.833 81.2747 105.513 80.1741L105.582 80.0395L105.418 79.4406C104.726 80.341 104.156 81.3811 103.705 82.5696L103.547 82.1751C103.245 81.4229 102.859 80.5642 102.39 79.6028L102.303 79.4406C101.855 80.991 101.632 82.254 101.632 83.2243C101.632 83.7954 101.695 84.278 101.82 84.6725C101.944 85.0673 102.244 85.7267 102.719 86.6506C102.761 86.734 102.826 86.8598 102.912 87.0315H98.2149L98.0397 86.6641H102.47L102.321 86.3768C101.938 85.6521 101.686 85.0903 101.567 84.6865C101.448 84.2833 101.389 83.8091 101.389 83.2613C101.389 82.3375 101.629 80.9586 102.11 79.1297L101.73 78.5026C101.653 78.7906 101.558 79.2179 101.443 79.7792L101.154 81.1673C100.997 81.9107 100.92 82.5278 100.92 83.0198C100.92 83.5263 100.976 83.9484 101.086 84.2833C101.196 84.6218 101.428 85.0767 101.781 85.6568C101.816 85.7126 101.867 85.8008 101.938 85.9171H97.5885C98.4168 85.2436 99.0729 84.3432 99.56 83.2107C100.044 82.0771 100.522 80.3274 100.997 77.9595L101.033 77.7691C100.727 77.3606 100.281 77.1097 99.7022 77.0216C100.02 76.274 100.266 75.4988 100.442 74.6907C100.522 74.8118 100.572 74.8811 100.59 74.9093L100.982 75.4806C101.116 75.6798 101.273 75.8843 101.46 76.093L101.614 75.4941L101.511 75.3595C101.223 74.9604 100.979 74.6402 100.78 74.394L100.703 74.2964L100.842 73.9995C101.149 74.3151 101.445 74.6819 101.73 75.0993L102.912 70.0155L101.989 68.4651H106ZM103.85 72.8295L102.894 76.7759C102.947 76.8641 102.975 76.9199 102.98 76.9381L103.34 77.5647C103.529 77.8896 103.773 78.3962 104.07 79.0874L104.156 79.2924C104.405 78.7999 104.702 78.3169 105.044 77.8338L103.85 72.8295ZM103.461 71.2509L102.078 76.9663C102.517 77.6721 102.897 78.3727 103.218 79.0598L103.616 79.9325C103.622 79.9423 103.651 79.9978 103.705 80.1094C103.755 80.0254 103.785 79.9748 103.791 79.9555L103.913 79.728C103.93 79.6909 103.96 79.631 104.008 79.5517C103.601 78.5725 103.129 77.6857 102.592 76.8964L103.705 72.2999L103.461 71.2509ZM108.574 75.1556C108.702 75.9725 109.023 77.0915 109.53 78.5167C109.405 78.4891 109.331 78.4745 109.314 78.4745L108.61 78.3816C108.292 78.3352 108.058 78.3122 107.915 78.3122C107.891 78.3122 107.832 78.3171 107.74 78.3263L109.192 84.3526L111.134 87.0315H106.095L105.932 86.6641H110.549L108.984 84.5007L107.434 78.0941C107.633 78.0153 107.859 77.9731 108.114 77.9731C108.426 77.9731 108.776 78.0153 109.156 78.0941L109.052 77.7921C108.681 76.7243 108.432 75.7591 108.304 74.8952L108.574 75.1556ZM121.353 68.4651C120.694 68.9993 120.267 69.4912 120.074 69.9321C119.786 70.6243 119.64 71.6593 119.64 73.0475V73.9296V85.9171H118.17L114.064 73.4564V80.8423L114.055 81.4557L114.159 83.4147C114.275 84.3198 114.539 84.9927 114.952 85.4247L115.02 85.5223C114.222 85.1049 113.82 83.7673 113.82 81.5111L113.83 80.2293V72.7877L113.357 71.362V79.1944C113.357 81.6833 113.461 83.3077 113.672 84.0788C113.88 84.8493 114.37 85.4159 115.142 85.7685L115.899 87.0315H111.184L111.044 86.6641H115.403L114.952 85.9171H110.896C111.603 85.5176 112.075 84.9839 112.306 84.3104C112.538 83.6421 112.654 82.4908 112.654 80.8564V69.9738L111.496 68.4651H115.899L114.664 69.7558L118.874 82.5977V80.9633L115.264 69.9738L116.481 68.6837L116.648 68.943L115.569 70.0854L118.874 80.2293V73.8785V73.1544C118.874 71.5805 118.791 70.5268 118.628 69.9926C118.462 69.4636 118.055 68.9529 117.405 68.4651H121.353ZM121.656 69.4724L121.502 69.8809C121.054 70.0437 120.751 70.3457 120.594 70.7819C120.433 71.2227 120.353 71.9661 120.353 73.0058V87.0315H118.482L118.369 86.6641H120.118V73.145C120.118 71.8632 120.225 70.9722 120.436 70.4704C120.647 69.9691 121.054 69.6353 121.656 69.4724ZM131.27 68.8877L131.175 69.1433C130.653 70.5685 130.202 71.9937 129.818 73.4142L129.741 73.7257L129.629 73.6328C129.495 72.2535 129.183 71.1627 128.696 70.3551C128.209 69.5471 127.622 69.1433 126.929 69.1433C126.193 69.1433 125.579 69.6447 125.086 70.652C124.465 71.9056 124.156 74.0266 124.156 77.0169C124.156 79.5934 124.441 81.6134 125.015 83.0714C125.584 84.5336 126.377 85.2624 127.393 85.2624C128.203 85.2624 128.854 84.8399 129.337 83.9901C129.822 83.1408 130.109 81.9289 130.202 80.3504C130.225 79.9701 130.323 79.7792 130.498 79.7792C130.724 79.7792 130.837 80.0718 130.837 80.6613C130.837 81.544 130.709 82.4538 130.454 83.3959C129.914 85.3924 128.8 86.3903 127.114 86.3903C125.605 86.3903 124.409 85.564 123.521 83.9066C122.633 82.254 122.191 80.0165 122.191 77.1979C122.191 74.5937 122.651 72.4116 123.574 70.652C124.495 68.8924 125.641 68.015 127.01 68.015C127.66 68.015 128.399 68.2653 129.228 68.762C129.661 69.027 130.02 69.1569 130.306 69.1569C130.614 69.1569 130.888 69.027 131.131 68.762L131.27 68.8877ZM128.749 71.2368C128.221 70.5732 127.723 70.243 127.253 70.243C125.751 70.243 125 72.4856 125 76.9663C125 79.004 125.175 80.7036 125.522 82.0588C125.87 83.4147 126.359 84.2921 126.992 84.6918V84.8263C126.306 84.6078 125.759 83.7856 125.353 82.3609C124.943 80.931 124.738 79.125 124.738 76.9381C124.738 72.2488 125.561 69.9044 127.209 69.9044C127.767 69.9044 128.278 70.2895 128.749 71.0604V71.2368ZM131.585 80.5825C131.49 82.834 131.09 84.5426 130.38 85.7173C129.67 86.8921 128.675 87.4816 127.402 87.4816C126.431 87.4816 125.531 87.0127 124.694 86.0793V85.9682C125.436 86.734 126.333 87.1144 127.384 87.1144C128.53 87.1144 129.468 86.5395 130.192 85.3877C130.546 84.8263 130.807 84.1946 130.977 83.4934C131.143 82.797 131.256 81.8731 131.315 80.7171L131.333 80.4062L131.585 80.5825ZM131.906 69.5377L131.811 69.7975C131.178 71.483 130.673 73.0198 130.296 74.408L130.062 74.2316L130.157 73.8921C130.448 72.9406 130.703 72.1518 130.923 71.5247L131.618 69.5935L131.707 69.3472L131.906 69.5377ZM132.704 68.4651H136.793L135.611 70.2758V76.1488C135.745 76.1859 135.902 76.214 136.081 76.2328V70.4105L137.028 68.943L137.203 69.185L136.306 70.5732V76.2417L136.594 76.2834C137.04 76.3486 137.473 76.381 137.889 76.381C138.495 76.381 139.011 76.3345 139.448 76.2417V69.9884L138.385 68.4651H142.405L141.205 70.2758V84.4496L142.259 85.9171H138.254L139.448 84.3244V78.5584C138.961 78.7394 138.459 78.8276 137.942 78.8276C137.455 78.8276 136.951 78.7859 136.428 78.7071L136.306 78.693V84.4496L137.743 87.0315H133.245L133.019 86.6641H137.263L136.081 84.6401V78.3816L136.333 78.4051C137.099 78.4938 137.651 78.5402 137.995 78.5402C138.551 78.5402 139.035 78.4239 139.448 78.1917V77.6992C138.901 77.825 138.269 77.8896 137.542 77.8896C137.155 77.8896 136.871 77.8761 136.689 77.8479L135.81 77.7274C135.778 77.7186 135.709 77.7086 135.611 77.6992V84.4496L136.725 85.9171H132.704L133.871 84.3244V78.3816C133.385 78.3816 132.996 78.6789 132.704 79.2778L132.524 79.1433C132.859 78.4791 133.31 78.1124 133.871 78.0388V77.537C133.221 77.537 132.708 77.9225 132.331 78.693L132.203 78.5584C132.544 77.249 133.099 76.4785 133.871 76.2417V70.123L132.704 68.4651ZM142.77 69.2268L141.882 70.5732V84.4449L143.325 87.0315H138.812L138.596 86.6641H142.83L141.666 84.6125V70.4386L142.63 68.943L142.77 69.2268ZM151.74 68.4651L150.834 70.0719L152.262 76.0002L152.61 75.6986L151.321 70.3406L152.245 68.6837L152.471 68.8319L151.591 70.4246L152.809 75.4941C152.88 75.4154 152.919 75.3642 152.931 75.346L153.219 74.9646C153.394 74.7466 153.504 74.5937 153.548 74.5009C153.7 75.5358 153.932 76.4602 154.246 77.2772C154.077 77.2584 153.955 77.249 153.881 77.249C153.328 77.249 152.925 77.3836 152.669 77.6575L154.246 84.3385L155.55 85.9171H151.158L152.358 84.3385L151.393 80.3639C150.754 81.3718 150.264 82.3281 149.923 83.2378L149.721 83.1544C150.066 82.2681 150.573 81.2747 151.253 80.1741L151.321 80.0395L151.158 79.4406C150.466 80.341 149.896 81.3811 149.445 82.5696L149.288 82.1751C148.985 81.4229 148.599 80.5642 148.13 79.6028L148.044 79.4406C147.595 80.991 147.373 82.254 147.373 83.2243C147.373 83.7954 147.435 84.278 147.56 84.6725C147.684 85.0673 147.984 85.7267 148.459 86.6506C148.501 86.734 148.566 86.8598 148.652 87.0315H143.955L143.78 86.6641H148.21L148.061 86.3768C147.678 85.6521 147.426 85.0903 147.307 84.6865C147.188 84.2833 147.129 83.8091 147.129 83.2613C147.129 82.3375 147.369 80.9586 147.851 79.1297L147.47 78.5026C147.393 78.7906 147.298 79.2179 147.182 79.7792L146.894 81.1673C146.737 81.9107 146.66 82.5278 146.66 83.0198C146.66 83.5263 146.716 83.9484 146.826 84.2833C146.936 84.6218 147.168 85.0767 147.521 85.6568C147.557 85.7126 147.607 85.8008 147.678 85.9171H143.328C144.157 85.2436 144.813 84.3432 145.3 83.2107C145.784 82.0771 146.262 80.3274 146.737 77.9595L146.773 77.7691C146.467 77.3606 146.021 77.1097 145.442 77.0216C145.76 76.274 146.006 75.4988 146.182 74.6907C146.262 74.8118 146.312 74.8811 146.33 74.9093L146.722 75.4806C146.856 75.6798 147.013 75.8843 147.2 76.093L147.355 75.4941L147.251 75.3595C146.963 74.9604 146.719 74.6402 146.52 74.394L146.443 74.2964L146.583 73.9995C146.888 74.3151 147.185 74.6819 147.47 75.0993L148.652 70.0155L147.729 68.4651H151.74ZM149.59 72.8295L148.634 76.7759C148.688 76.8641 148.715 76.9199 148.72 76.9381L149.079 77.5647C149.27 77.8896 149.513 78.3962 149.81 79.0874L149.896 79.2924C150.145 78.7999 150.443 78.3169 150.784 77.8338L149.59 72.8295ZM149.201 71.2509L147.818 76.9663C148.257 77.6721 148.637 78.3727 148.958 79.0598L149.356 79.9325C149.362 79.9423 149.391 79.9978 149.445 80.1094C149.496 80.0254 149.525 79.9748 149.531 79.9555L149.653 79.728C149.671 79.6909 149.7 79.631 149.748 79.5517C149.341 78.5725 148.869 77.6857 148.332 76.8964L149.445 72.2999L149.201 71.2509ZM154.314 75.1556C154.442 75.9725 154.763 77.0915 155.27 78.5167C155.146 78.4891 155.071 78.4745 155.054 78.4745L154.35 78.3816C154.032 78.3352 153.798 78.3122 153.655 78.3122C153.631 78.3122 153.572 78.3171 153.48 78.3263L154.932 84.3526L156.874 87.0315H151.835L151.672 86.6641H156.289L154.724 84.5007L153.174 78.0941C153.373 78.0153 153.599 77.9731 153.854 77.9731C154.166 77.9731 154.516 78.0153 154.897 78.0941L154.792 77.7921C154.421 76.7243 154.172 75.7591 154.044 74.8952L154.314 75.1556ZM157.577 70.0948C158.952 68.8548 160.431 68.2335 162.013 68.2335C163.243 68.2335 164.258 68.6508 165.054 69.4865C165.853 70.3176 166.25 71.3813 166.25 72.6667C166.25 73.721 165.989 74.649 165.466 75.4618C164.944 76.274 164.231 76.8588 163.326 77.2208C163.727 78.9486 164.27 80.6243 164.959 82.2582C165.645 83.8884 166.333 85.1419 167.025 86.01L166.895 86.0793C166.031 86.5437 165.182 87.1937 164.353 88.0388L164.223 88.1734L164.181 87.7368C163.81 84.2269 163.29 81.2554 162.622 78.8135L162.587 78.6789C162.188 78.9716 161.651 79.1991 160.977 79.3707L160.909 79.3848V84.4731L162.441 87.0315H157.943L157.803 86.6641H161.945L160.683 84.5706V79.0874L160.867 79.0457C161.527 78.9392 162.082 78.7347 162.527 78.4327C162.491 78.3263 162.471 78.2569 162.464 78.2287L162.378 77.8338C162.373 77.8067 162.358 77.7551 162.334 77.6721C161.975 77.8338 161.298 78.0107 160.3 78.2006L160.205 78.2287V84.2968L161.197 85.9171H157.352L158.483 84.2968V79.728L158.415 79.7426C158.076 79.8585 157.773 79.9884 157.5 80.1365L157.429 80.1741L157.352 79.9049C157.607 79.7514 157.806 79.6445 157.952 79.5887L158.415 79.4124L158.483 79.3848V78.6789C158.142 78.6789 157.714 78.7947 157.203 79.0321L157.108 79.0874C157.12 78.9622 157.177 78.6654 157.284 78.2006C157.296 78.1687 157.334 77.9642 157.405 77.5928C157.411 77.5647 157.42 77.5229 157.429 77.4676C157.69 77.4953 157.895 77.5094 158.041 77.5094C158.195 77.5094 158.34 77.4953 158.474 77.4676V70.7772C158.207 70.5221 157.931 70.3087 157.649 70.1365L157.577 70.0948ZM160.205 69.7417V77.0727C160.374 77.0727 160.532 77.0498 160.683 77.008V70.3128C161.001 70.1783 161.384 70.1084 161.832 70.1084C162.96 70.1084 163.729 70.689 164.136 71.8497C163.706 71.3067 163.329 70.9305 163.005 70.726C162.681 70.5221 162.293 70.4199 161.838 70.4199C161.485 70.4199 161.176 70.4751 160.909 70.5868V77.008L161.004 76.9799C162.147 76.6501 162.996 76.1394 163.548 75.4341C164.104 74.733 164.38 73.8185 164.38 72.6948C164.38 71.6869 164.131 70.8565 163.631 70.1965C163.133 69.5424 162.504 69.2127 161.743 69.2127C161.134 69.2127 160.623 69.389 160.205 69.7417ZM164.407 77.9037C164.772 79.7702 165.416 81.5993 166.345 83.387C166.924 84.5007 167.658 85.504 168.546 86.3903C167.218 86.9432 165.971 87.7879 164.805 88.9209L164.727 89.0044L164.552 88.7863C165.659 87.6532 166.841 86.8175 168.094 86.2839C166.423 84.5425 165.11 81.7568 164.154 77.9314L164.101 77.6992C165.876 76.6459 166.764 75.0439 166.764 72.8853C166.764 71.9979 166.535 71.0281 166.075 69.9738C166.66 70.81 166.954 71.868 166.954 73.1591C166.954 75.2438 166.105 76.827 164.407 77.9037Z" fill="#1B1918"/>
<defs>
<linearGradient id="paint0_linear_693_5880" x1="81.4531" y1="1" x2="123.011" y2="1" gradientUnits="userSpaceOnUse">
<stop stop-color="white"/>
<stop offset="0.26" stop-color="#FFEC00"/>
<stop offset="0.38" stop-color="#E74013"/>
<stop offset="0.48" stop-color="#FFEC00"/>
<stop offset="1" stop-color="#FFEC00"/>
</linearGradient>
<radialGradient id="paint1_radial_693_5880" cx="0" cy="0" r="1" gradientUnits="userSpaceOnUse" gradientTransform="translate(102.235 28.9125) scale(27.4313 36.8492)">
<stop stop-color="#009EE0"/>
<stop offset="1" stop-color="#004394"/>
</radialGradient>
<linearGradient id="paint2_linear_693_5880" x1="19.5723" y1="62.0793" x2="19.5723" y2="90.9719" gradientUnits="userSpaceOnUse">
<stop stop-color="#FFCB00"/>
<stop offset="0.46" stop-color="#FFFCDB"/>
<stop offset="1" stop-color="#FFCB00"/>
</linearGradient>
<linearGradient id="paint3_linear_693_5880" x1="19.5723" y1="62.0793" x2="19.5723" y2="90.9719" gradientUnits="userSpaceOnUse">
<stop stop-color="#F8A600"/>
<stop offset="0.5" stop-color="#FFEC00"/>
<stop offset="1" stop-color="#F8A600"/>
</linearGradient>
</defs>
</svg>
